<svg width="32" height="32" viewBox="0 0 32 32" fill="none" xmlns="http://www.w3.org/2000/svg">
<mask id="mask0_221_1190" style="mask-type:alpha" maskUnits="userSpaceOnUse" x="0" y="0" width="32" height="32">
<rect width="32" height="32" fill="white"/>
</mask>
<g mask="url(#mask0_221_1190)">
</g>
<g clip-path="url(#clip0_221_1190)">
<path d="M24.786 0H7.214C3.22982 0 0 3.22982 0 7.214V24.786C0 28.7702 3.22982 32 7.214 32H24.786C28.7702 32 32 28.7702 32 24.786V7.214C32 3.22982 28.7702 0 24.786 0Z" fill="#06C755"/>
<path d="M26.666 14.4959C26.666 9.72189 21.88 5.83789 15.997 5.83789C10.114 5.83789 5.328 9.72189 5.328 14.4959C5.328 18.7759 9.124 22.3599 14.251 23.0379C14.598 23.1129 15.071 23.2669 15.191 23.5639C15.299 23.8339 15.261 24.2559 15.226 24.5289C15.226 24.5289 15.101 25.2819 15.074 25.4419C15.027 25.7119 14.86 26.4969 15.998 26.0169C17.137 25.5369 22.142 22.3989 24.38 19.8229C25.926 18.1269 26.667 16.4069 26.667 14.4959H26.666Z" fill="white"/>
<path d="M23.116 17.2535H20.119C20.006 17.2535 19.915 17.1625 19.915 17.0495V17.0465V12.3985V12.3935C19.915 12.2805 20.006 12.1895 20.119 12.1895H23.116C23.228 12.1895 23.32 12.2815 23.32 12.3935V13.1505C23.32 13.2635 23.229 13.3545 23.116 13.3545H21.079V14.1405H23.116C23.228 14.1405 23.32 14.2325 23.32 14.3445V15.1015C23.32 15.2145 23.229 15.3055 23.116 15.3055H21.079V16.0915H23.116C23.228 16.0915 23.32 16.1835 23.32 16.2955V17.0525C23.32 17.1655 23.229 17.2565 23.116 17.2565V17.2535Z" fill="#06C755"/>
<path d="M12.029 17.2525C12.141 17.2525 12.233 17.1615 12.233 17.0485V16.2915C12.233 16.1795 12.141 16.0875 12.029 16.0875H9.992V12.3915C9.992 12.2795 9.9 12.1875 9.788 12.1875H9.031C8.918 12.1875 8.827 12.2785 8.827 12.3915V17.0445V17.0485C8.827 17.1615 8.918 17.2525 9.031 17.2525H12.028H12.029Z" fill="#06C755"/>
<path d="M13.833 12.1895H13.077C12.9644 12.1895 12.873 12.2808 12.873 12.3935V17.0495C12.873 17.1621 12.9644 17.2535 13.077 17.2535H13.833C13.9457 17.2535 14.037 17.1621 14.037 17.0495V12.3935C14.037 12.2808 13.9457 12.1895 13.833 12.1895Z" fill="#06C755"/>
<path d="M18.984 12.1895H18.227C18.114 12.1895 18.023 12.2805 18.023 12.3935V15.1585L15.893 12.2815C15.888 12.2745 15.882 12.2675 15.877 12.2605C15.877 12.2605 15.877 12.2605 15.876 12.2595C15.872 12.2555 15.868 12.2505 15.864 12.2465C15.863 12.2455 15.861 12.2445 15.86 12.2435C15.856 12.2405 15.853 12.2375 15.849 12.2345C15.847 12.2335 15.845 12.2315 15.843 12.2305C15.84 12.2275 15.836 12.2255 15.832 12.2235C15.83 12.2225 15.828 12.2205 15.826 12.2195C15.822 12.2175 15.819 12.2155 15.815 12.2135C15.813 12.2125 15.811 12.2115 15.809 12.2105C15.805 12.2085 15.801 12.2065 15.797 12.2055C15.795 12.2055 15.793 12.2035 15.79 12.2035C15.786 12.2025 15.782 12.2005 15.778 12.1995C15.776 12.1995 15.773 12.1985 15.771 12.1975C15.767 12.1975 15.763 12.1955 15.759 12.1945C15.756 12.1945 15.753 12.1945 15.75 12.1935C15.746 12.1935 15.743 12.1925 15.739 12.1925C15.735 12.1925 15.732 12.1925 15.728 12.1925C15.726 12.1925 15.723 12.1925 15.721 12.1925H14.969C14.857 12.1925 14.765 12.2835 14.765 12.3965V17.0525C14.765 17.1645 14.856 17.2565 14.969 17.2565H15.726C15.839 17.2565 15.93 17.1655 15.93 17.0525V14.2875L18.063 17.1685C18.078 17.1895 18.096 17.2065 18.116 17.2195C18.116 17.2195 18.118 17.2205 18.118 17.2215C18.122 17.2245 18.126 17.2265 18.131 17.2295C18.133 17.2305 18.135 17.2315 18.137 17.2325C18.14 17.2345 18.144 17.2355 18.147 17.2375C18.15 17.2395 18.154 17.2405 18.157 17.2415C18.159 17.2415 18.161 17.2435 18.163 17.2435C18.168 17.2455 18.172 17.2465 18.177 17.2475C18.177 17.2475 18.179 17.2475 18.18 17.2475C18.197 17.2515 18.215 17.2545 18.233 17.2545H18.985C19.097 17.2545 19.189 17.1635 19.189 17.0505V12.3945C19.189 12.2825 19.098 12.1905 18.985 12.1905L18.984 12.1895Z" fill="#06C755"/>
</g>
<defs>
<clipPath id="clip0_221_1190">
<rect width="32" height="32" fill="white"/>
</clipPath>
</defs>
</svg>
