<?xml version="1.0" encoding="UTF-8"?><svg id="_レイヤー_2" xmlns="http://www.w3.org/2000/svg" width="43" height="32" viewBox="0 0 43 32"><defs><style>.cls-1{fill:none;stroke:#fff;stroke-linecap:round;stroke-width:.8px;}</style></defs><g id="_レイヤー_2-2"><path class="cls-1" d="M42.49,9.2v-.02c-.04-2.34-1-4.58-2.68-6.22-1.68-1.64-3.94-2.57-6.3-2.56M42.49,9.2v.02M42.49,9.2v.02M42.49,9.22c.24,2.26.2,5.59-1.34,9.45M41.16,18.67c-1.57,3.94-4.65,8.26-10.3,12.48-.24.18-.51.31-.8.38-.29.07-.59.09-.89.05-.6-.09-1.14-.4-1.5-.88-.36-.48-.52-1.08-.43-1.68.09-.59.4-1.13.89-1.49,4.23-3.16,6.68-6.24,8.09-8.96l.41-.79M36.61,17.77l-.86.22M36.61,17.77l-.86.22M35.75,17.99c-1.23.32-2.52.37-3.78.15M18.36,9.2v-.02c-.04-2.34-1-4.58-2.68-6.22-1.68-1.64-3.94-2.57-6.3-2.56M18.36,9.2v.02M18.36,9.2v.02M18.36,9.22c.24,2.26.2,5.59-1.34,9.45h0M17.03,18.67c-1.57,3.94-4.65,8.26-10.3,12.48-.24.18-.51.31-.8.38-.29.07-.59.09-.89.05M5.03,31.58c-.6-.09-1.14-.4-1.5-.88-.36-.48-.52-1.08-.43-1.68.09-.59.4-1.13.89-1.49,4.24-3.16,6.68-6.24,8.09-8.96l.41-.79M12.48,17.77l-.86.22M12.48,17.77l-.86.22M11.62,17.99c-1.23.32-2.52.37-3.78.15M31.97,18.13c-1.26-.22-2.45-.7-3.51-1.41M28.46,16.72c-1.05-.71-1.94-1.64-2.61-2.72M25.85,14c-.67-1.08-1.09-2.29-1.25-3.55M24.6,10.46c-.16-1.26-.05-2.53.32-3.74M24.92,6.71c.37-1.21,1-2.33,1.85-3.28M26.77,3.43c.84-.95,1.88-1.71,3.04-2.24M29.81,1.19c1.16-.52,2.42-.79,3.7-.79M7.84,18.13c-1.26-.22-2.45-.7-3.51-1.41M4.33,16.72c-1.05-.71-1.94-1.64-2.61-2.72M1.72,14c-.67-1.08-1.09-2.29-1.25-3.55M.47,10.46c-.16-1.26-.05-2.53.32-3.74M.8,6.71c.37-1.21,1-2.33,1.85-3.28M2.64,3.43c.84-.95,1.88-1.71,3.04-2.24M5.68,1.19c1.16-.52,2.42-.79,3.7-.79"/></g></svg>