<?xml version="1.0" encoding="UTF-8"?><svg id="_レイヤー_2" xmlns="http://www.w3.org/2000/svg" width="43" height="32" viewBox="0 0 43 32"><defs><style>.cls-1{fill:none;stroke:#fff;stroke-linecap:round;stroke-width:.8px;}</style></defs><g id="_レイヤー_2-2"><path class="cls-1" d="M.51,22.8v.02c.04,2.34,1,4.58,2.68,6.22,1.68,1.64,3.94,2.57,6.3,2.56M.51,22.8v-.02M.51,22.8v-.02M.51,22.78c-.24-2.26-.2-5.59,1.34-9.45M1.84,13.33C3.42,9.39,6.49,5.07,12.15.85c.24-.18.51-.31.8-.38.29-.07.59-.09.89-.05.6.09,1.14.4,1.5.88.36.48.52,1.08.43,1.68-.09.59-.4,1.13-.89,1.49-4.23,3.16-6.68,6.24-8.09,8.96l-.41.79M6.39,14.23l.86-.22M6.39,14.23l.86-.22M7.25,14.01c1.23-.32,2.52-.37,3.78-.15M24.64,22.8v.02c.04,2.34,1,4.58,2.68,6.22,1.68,1.64,3.94,2.57,6.3,2.56M24.64,22.8v-.02M24.64,22.8v-.02M24.64,22.78c-.24-2.26-.2-5.59,1.34-9.45h0M25.97,13.33c1.57-3.94,4.65-8.26,10.3-12.48.24-.18.51-.31.8-.38.29-.07.59-.09.89-.05M37.97.42c.6.09,1.14.4,1.5.88.36.48.52,1.08.43,1.68-.09.59-.4,1.13-.89,1.49-4.24,3.16-6.68,6.24-8.09,8.96l-.41.79M30.52,14.23l.86-.22M30.52,14.23l.86-.22M31.38,14.01c1.23-.32,2.52-.37,3.78-.15M11.03,13.87c1.26.22,2.45.7,3.51,1.41M14.54,15.28c1.05.71,1.94,1.64,2.61,2.72M17.15,18c.67,1.08,1.09,2.29,1.25,3.55M18.4,21.54c.16,1.26.05,2.53-.32,3.74M18.08,25.29c-.37,1.21-1,2.33-1.85,3.28M16.23,28.57c-.84.95-1.88,1.71-3.04,2.24M13.19,30.81c-1.16.52-2.42.79-3.7.79M35.16,13.87c1.26.22,2.45.7,3.51,1.41M38.67,15.28c1.05.71,1.94,1.64,2.61,2.72M41.28,18c.67,1.08,1.09,2.29,1.25,3.55M42.53,21.54c.16,1.26.05,2.53-.32,3.74M42.2,25.29c-.37,1.21-1,2.33-1.85,3.28M40.36,28.57c-.84.95-1.88,1.71-3.04,2.24M37.32,30.81c-1.16.52-2.42.79-3.7.79"/></g></svg>