<svg width="30" height="21" viewBox="0 0 30 21" fill="none" xmlns="http://www.w3.org/2000/svg">
<g clip-path="url(#clip0_221_1893)">
<path d="M28.5454 3.62356C28.2175 2.39453 27.2484 1.42678 26.0195 1.09775C23.7922 0.500977 14.8571 0.500977 14.8571 0.500977C14.8571 0.500977 5.92206 0.500977 3.69479 1.09775C2.46589 1.42678 1.49674 2.39453 1.16881 3.62356C0.571411 5.85259 0.571411 10.501 0.571411 10.501C0.571411 10.501 0.571411 15.1494 1.16881 17.3784C1.49674 18.6074 2.46589 19.5752 3.69479 19.9042C5.92368 20.501 14.8571 20.501 14.8571 20.501C14.8571 20.501 23.7922 20.501 26.0195 19.9042C27.2484 19.5752 28.2175 18.6074 28.5454 17.3784C29.1428 15.151 29.1428 10.501 29.1428 10.501C29.1428 10.501 29.1428 5.85259 28.5454 3.62356Z" fill="#FF0000"/>
<path d="M11.935 14.7217L19.4025 10.5008L11.935 6.27979V14.7217Z" fill="white"/>
</g>
<defs>
<clipPath id="clip0_221_1893">
<rect width="28.5714" height="20" fill="white" transform="translate(0.571411 0.5)"/>
</clipPath>
</defs>
</svg>
