<svg width="33" height="33" viewBox="0 0 33 33" fill="none" xmlns="http://www.w3.org/2000/svg">
<mask id="mask0_221_1208" style="mask-type:alpha" maskUnits="userSpaceOnUse" x="0" y="0" width="33" height="33">
<rect width="33" height="33" fill="white"/>
</mask>
<g mask="url(#mask0_221_1208)">
</g>
<g clip-path="url(#clip0_221_1208)">
<path d="M29.5625 5.5H26.5833V7.33333H29.3333V27.5H3.66667V7.33333H6.41667V5.5H3.4375C3.22322 5.50358 3.01174 5.54934 2.81515 5.63467C2.61855 5.71999 2.44069 5.84321 2.29172 5.99728C2.14276 6.15136 2.0256 6.33327 1.94695 6.53263C1.8683 6.73198 1.82969 6.94489 1.83333 7.15917V27.6742C1.82969 27.8885 1.8683 28.1014 1.94695 28.3007C2.0256 28.5001 2.14276 28.682 2.29172 28.8361C2.44069 28.9901 2.61855 29.1133 2.81515 29.1987C3.01174 29.284 3.22322 29.3298 3.4375 29.3333H29.5625C29.7768 29.3298 29.9883 29.284 30.1849 29.1987C30.3815 29.1133 30.5593 28.9901 30.7083 28.8361C30.8572 28.682 30.9744 28.5001 31.0531 28.3007C31.1317 28.1014 31.1703 27.8885 31.1667 27.6742V7.15917C31.1703 6.94489 31.1317 6.73198 31.0531 6.53263C30.9744 6.33327 30.8572 6.15136 30.7083 5.99728C30.5593 5.84321 30.3815 5.71999 30.1849 5.63467C29.9883 5.54934 29.7768 5.50358 29.5625 5.5Z" fill="white"/>
<path d="M7.33334 12.834H9.16668V14.6673H7.33334V12.834Z" fill="white"/>
<path d="M12.8333 12.834H14.6667V14.6673H12.8333V12.834Z" fill="white"/>
<path d="M18.3333 12.834H20.1667V14.6673H18.3333V12.834Z" fill="white"/>
<path d="M23.8333 12.834H25.6667V14.6673H23.8333V12.834Z" fill="white"/>
<path d="M7.33334 17.418H9.16668V19.2513H7.33334V17.418Z" fill="white"/>
<path d="M12.8333 17.418H14.6667V19.2513H12.8333V17.418Z" fill="white"/>
<path d="M18.3334 17.418H20.1667V19.2513H18.3334V17.418Z" fill="white"/>
<path d="M23.8333 17.418H25.6667V19.2513H23.8333V17.418Z" fill="white"/>
<path d="M7.33334 22H9.16668V23.8333H7.33334V22Z" fill="white"/>
<path d="M12.8333 22H14.6667V23.8333H12.8333V22Z" fill="white"/>
<path d="M18.3333 22H20.1667V23.8333H18.3333V22Z" fill="white"/>
<path d="M23.8333 22H25.6667V23.8333H23.8333V22Z" fill="white"/>
<path d="M9.16667 9.16732C9.40978 9.16732 9.64294 9.07074 9.81485 8.89883C9.98676 8.72692 10.0833 8.49377 10.0833 8.25065V2.75065C10.0833 2.50754 9.98676 2.27438 9.81485 2.10247C9.64294 1.93056 9.40978 1.83398 9.16667 1.83398C8.92355 1.83398 8.69039 1.93056 8.51849 2.10247C8.34658 2.27438 8.25 2.50754 8.25 2.75065V8.25065C8.25 8.49377 8.34658 8.72692 8.51849 8.89883C8.69039 9.07074 8.92355 9.16732 9.16667 9.16732Z" fill="white"/>
<path d="M23.8333 9.16732C24.0764 9.16732 24.3096 9.07074 24.4815 8.89883C24.6534 8.72692 24.75 8.49377 24.75 8.25065V2.75065C24.75 2.50754 24.6534 2.27438 24.4815 2.10247C24.3096 1.93056 24.0764 1.83398 23.8333 1.83398C23.5902 1.83398 23.357 1.93056 23.1851 2.10247C23.0132 2.27438 22.9167 2.50754 22.9167 2.75065V8.25065C22.9167 8.49377 23.0132 8.72692 23.1851 8.89883C23.357 9.07074 23.5902 9.16732 23.8333 9.16732Z" fill="white"/>
<path d="M11.9167 5.5H21.0833V7.33333H11.9167V5.5Z" fill="white"/>
</g>
<defs>
<clipPath id="clip0_221_1208">
<rect width="33" height="33" fill="white"/>
</clipPath>
</defs>
</svg>
